<?xml version="1.0" encoding="utf-8"?>
<svg xmlns="http://www.w3.org/2000/svg" y="-107.299pt" stroke-width="0.566929" version="1.1" height="129.559pt" x="-22.2598pt" width="129.559pt" viewBox="-22.2598 -107.299 129.559 129.559" stroke-miterlimit="10.000000" fill="none">
 <g stroke-width="0.566929">
  <path stroke="black" d="M-4.25197 -0L89.1087 -0"/>
  <g stroke-dasharray="none" stroke-linecap="butt">
   <path d="M88 -2.2961L93.5433 -0L88 2.2961L89.1087 -0Z" fill="black"/>
  </g>
 </g>
 <g stroke-width="0.566929">
  <path stroke="black" d="M0 4.25197L0 -89.1087"/>
  <g stroke-dasharray="none" stroke-linecap="butt">
   <path d="M-2.2961 -88L0 -93.5433L2.2961 -88L0 -89.1087Z" fill="black"/>
  </g>
 </g>
 <g transform="matrix(1.000000,0.000000,0.000000,1.000000,93.543307,2.834646)">
  <path d="M-4.91954 5.28419M0.209228 3.95716C0.113587 4.06476 0.0538112 4.13649 -0.0537853 4.27995C-0.328754 4.63861 -0.472216 4.75816 -0.603723 4.75816C-0.783051 4.75816 -0.890647 4.60274 -0.974333 4.268C-0.998244 4.17235 -1.0102 4.10062 -1.02215 4.06476C-1.32103 2.85729 -1.45254 2.30735 -1.45254 2.12802C-0.926513 1.20747 -0.496126 0.681445 -0.280933 0.681445C-0.209202 0.681445 -0.113561 0.717311 0.00599057 0.777087C0.149453 0.860773 0.233139 0.884683 0.32878 0.884683C0.579839 0.884683 0.747211 0.705356 0.747211 0.454297C0.747211 0.203239 0.543973 0.011956 0.257049 0.011956C-0.268978 0.011956 -0.723275 0.442342 -1.54818 1.72155L-1.67969 1.06401C-1.84706 0.251059 -1.97857 0.011956 -2.30136 0.011956C-2.56437 0.011956 -2.97085 0.119553 -3.70011 0.358656L-3.83162 0.406477L-3.7838 0.585804C-3.3295 0.478208 -3.2219 0.454297 -3.11431 0.454297C-2.81543 0.454297 -2.7437 0.561894 -2.57633 1.2792L-2.22963 2.74969L-3.20995 4.14844C-3.44905 4.5071 -3.68816 4.72229 -3.81966 4.72229C-3.89139 4.72229 -4.01095 4.68643 -4.1305 4.6147C-4.28591 4.53101 -4.41742 4.49514 -4.51306 4.49514C-4.74021 4.49514 -4.91954 4.67447 -4.91954 4.91357C-4.91954 5.22441 -4.68044 5.41569 -4.32178 5.41569C-3.95117 5.41569 -3.80771 5.3081 -3.20995 4.57883C-2.88716 4.19626 -2.6361 3.87348 -2.13398 3.18008L-1.77533 4.6147C-1.61991 5.22441 -1.4645 5.41569 -1.08193 5.41569C-0.627633 5.41569 -0.316799 5.12877 0.376601 4.0528ZM0.376601 4.0528" fill="black"/>
  <path d="M1.59602 7.07745M3.03064 1.68965L1.59602 2.41493L1.59602 2.52651C1.69166 2.48666 1.77933 2.45478 1.81121 2.43884C1.95467 2.38305 2.09017 2.35117 2.16987 2.35117C2.33724 2.35117 2.40897 2.47072 2.40897 2.72577L2.40897 6.33623C2.40897 6.59924 2.34521 6.78255 2.21769 6.85429C2.09814 6.92602 1.98655 6.94993 1.65181 6.9579L1.65181 7.07745L3.85156 7.07745L3.85156 6.9579C3.22192 6.94993 3.0944 6.87023 3.0944 6.48766L3.0944 1.70559ZM3.0944 1.70559" fill="black"/>
 </g>
 <g transform="matrix(1.000000,0.000000,0.000000,1.000000,-2.834646,-93.543307)">
  <path d="M-10.1141 1.74545M-4.9853 0.41843C-5.08094 0.526026 -5.14071 0.597757 -5.24831 0.741219C-5.52328 1.09987 -5.66674 1.21943 -5.79825 1.21943C-5.97758 1.21943 -6.08517 1.06401 -6.16886 0.729264C-6.19277 0.633623 -6.20472 0.561892 -6.21668 0.526026C-6.51556 -0.681446 -6.64706 -1.23138 -6.64706 -1.41071C-6.12104 -2.33126 -5.69065 -2.85729 -5.47546 -2.85729C-5.40373 -2.85729 -5.30809 -2.82142 -5.18853 -2.76164C-5.04507 -2.67796 -4.96139 -2.65405 -4.86574 -2.65405C-4.61469 -2.65405 -4.44731 -2.83338 -4.44731 -3.08443C-4.44731 -3.33549 -4.65055 -3.52678 -4.93748 -3.52678C-5.4635 -3.52678 -5.9178 -3.09639 -6.74271 -1.81719L-6.87421 -2.47472C-7.04159 -3.28767 -7.17309 -3.52678 -7.49588 -3.52678C-7.7589 -3.52678 -8.16537 -3.41918 -8.89464 -3.18008L-9.02614 -3.13226L-8.97832 -2.95293C-8.52403 -3.06052 -8.41643 -3.08443 -8.30883 -3.08443C-8.00995 -3.08443 -7.93822 -2.97684 -7.77085 -2.25953L-7.42415 -0.789042L-8.40447 0.609712C-8.64358 0.968368 -8.88268 1.18356 -9.01419 1.18356C-9.08592 1.18356 -9.20547 1.1477 -9.32502 1.07596C-9.48044 0.992278 -9.61195 0.956412 -9.70759 0.956412C-9.93474 0.956412 -10.1141 1.13574 -10.1141 1.37484C-10.1141 1.68568 -9.87496 1.87696 -9.51631 1.87696C-9.1457 1.87696 -9.00223 1.76936 -8.40447 1.0401C-8.08169 0.657533 -7.83063 0.334744 -7.32851 -0.358656L-6.96985 1.07596C-6.81444 1.68568 -6.65902 1.87696 -6.27645 1.87696C-5.82216 1.87696 -5.51132 1.59004 -4.81792 0.514071ZM-4.81792 0.514071" fill="black"/>
  <path d="M-4.24408 3.53872M-0.697385 2.44681L-0.800996 2.40696C-1.09589 2.86126 -1.1995 2.93299 -1.55816 2.93299L-3.46301 2.93299L-2.12403 1.53025C-1.41469 0.789028 -1.10386 0.183299 -1.10386 -0.438369C-1.10386 -1.23538 -1.74944 -1.84908 -2.57833 -1.84908C-3.01669 -1.84908 -3.43113 -1.67374 -3.72603 -1.35493C-3.98107 -1.08395 -4.10062 -0.828905 -4.23611 -0.263027L-4.06874 -0.223176C-3.74994 -1.00425 -3.46301 -1.25929 -2.91308 -1.25929C-2.24359 -1.25929 -1.78929 -0.804995 -1.78929 -0.135505C-1.78929 0.486164 -2.15592 1.22738 -2.8254 1.93672L-4.24408 3.44308L-4.24408 3.53872L-1.13574 3.53872ZM-1.13574 3.53872" fill="black"/>
 </g>
 <path d="M0 -0L85.0394 -0L85.0394 -85.0394L0 -85.0394Z" fill="#bfbfbf"/>
 <path stroke="black" stroke-width="0.566929" d="M0 -0L63.7795 -0L63.7795 -63.7795L0 -63.7795Z" fill="#fff"/>
 <path stroke="black" stroke-width="1.133858" d="M0 -0L85.0394 -0L85.0394 -85.0394L0 -85.0394Z"/>
 <path stroke="black" stroke-width="0.400879" d="M0 17.0079L-4.25197 17.0079M0 21.2598L0 12.7559M63.7795 17.0079L68.0315 17.0079M63.7795 21.2598L63.7795 12.7559"/>
 <path stroke="black" stroke-width="0.400879" d="M3.14265 17.0079L60.6369 17.0079"/>
 <g stroke-dasharray="none" stroke-linecap="butt">
  <path d="M3.92831 18.635L0 17.0079L3.92831 15.3807L3.14265 17.0079Z" fill="#000"/>
 </g>
 <g stroke-dasharray="none" stroke-linecap="butt">
  <path d="M59.8512 15.3807L63.7795 17.0079L59.8512 18.635L60.6369 17.0079Z" fill="#000"/>
 </g>
 <path stroke="black" stroke-width="0.400879" d="M-17.0079 -0L-17.0079 4.25197M-12.7559 -0L-21.2598 -0M-17.0079 -63.7795L-17.0079 -68.0315M-12.7559 -63.7795L-21.2598 -63.7795"/>
 <path stroke="black" stroke-width="0.400879" d="M-17.0079 -3.14265L-17.0079 -60.6369"/>
 <g stroke-dasharray="none" stroke-linecap="butt">
  <path d="M-15.3807 -3.92831L-17.0079 -0L-18.635 -3.92831L-17.0079 -3.14265Z" fill="#000"/>
 </g>
 <g stroke-dasharray="none" stroke-linecap="butt">
  <path d="M-18.635 -59.8512L-17.0079 -63.7795L-15.3807 -59.8512L-17.0079 -60.6369Z" fill="#000"/>
 </g>
 <path stroke="black" stroke-width="0.400879" d="M0 -102.047L-4.25197 -102.047M0 -97.7953L0 -106.299M85.0394 -102.047L89.2913 -102.047M85.0394 -97.7953L85.0394 -106.299"/>
 <path stroke="black" stroke-width="0.400879" d="M3.14265 -102.047L81.8967 -102.047"/>
 <g stroke-dasharray="none" stroke-linecap="butt">
  <path d="M3.92831 -100.42L0 -102.047L3.92831 -103.674L3.14265 -102.047Z" fill="#000"/>
 </g>
 <g stroke-dasharray="none" stroke-linecap="butt">
  <path d="M81.1111 -103.674L85.0394 -102.047L81.1111 -100.42L81.8967 -102.047Z" fill="#000"/>
 </g>
 <path stroke="black" stroke-width="0.400879" d="M102.047 -0L102.047 4.25197M106.299 -0L97.7953 -0M102.047 -85.0394L102.047 -89.2913M106.299 -85.0394L97.7953 -85.0394"/>
 <path stroke="black" stroke-width="0.400879" d="M102.047 -3.14265L102.047 -81.8967"/>
 <g stroke-dasharray="none" stroke-linecap="butt">
  <path d="M103.674 -3.92831L102.047 -0L100.42 -3.92831L102.047 -3.14265Z" fill="#000"/>
 </g>
 <g stroke-dasharray="none" stroke-linecap="butt">
  <path d="M100.42 -81.1111L102.047 -85.0394L103.674 -81.1111L102.047 -81.8967Z" fill="#000"/>
 </g>
 <path d="M28.901 19.6948L34.8786 19.6948L34.8786 14.3209L28.901 14.3209Z" fill="#fff"/>
 <g transform="matrix(1.000000,0.000000,0.000000,1.000000,31.889764,17.007874)">
  <g>
   <path d="M-2.78555 2.59725M2.55841 1.28219C2.37908 1.46151 2.30735 1.52129 2.22366 1.61693C1.86501 1.98754 1.70959 2.10709 1.60199 2.10709C1.50635 2.10709 1.43462 2.03536 1.43462 1.95168C1.43462 1.71257 1.93674 -0.331761 2.49863 -2.38805C2.5345 -2.5076 2.54645 -2.53151 2.57036 -2.63911L2.48667 -2.67497L1.75741 -2.59129L1.72154 -2.55542L1.59004 -1.98157C1.4944 -2.42392 1.1477 -2.67497 0.633624 -2.67497C-0.944458 -2.67497 -2.78555 -0.487178 -2.78555 1.40174C-2.78555 2.2386 -2.33126 2.72876 -1.56613 2.72876C-0.729265 2.72876 -0.215193 2.33424 0.836862 0.8518C0.597758 1.7843 0.561893 1.93972 0.561893 2.22664C0.561893 2.57334 0.705355 2.71681 1.0401 2.71681C1.51831 2.71681 1.81719 2.48966 2.70187 1.40174ZM2.70187 1.40174M0.705355 -2.41196C1.11183 -2.38805 1.37484 -2.10113 1.37484 -1.6827C1.37484 -0.678461 0.777086 0.732249 -0.0478207 1.61693C-0.334745 1.93972 -0.74122 2.14296 -1.08792 2.14296C-1.50635 2.14296 -1.78132 1.79626 -1.78132 1.24632C-1.78132 0.600742 -1.32702 -0.63064 -0.812951 -1.37186C-0.334745 -2.06526 0.227148 -2.44783 0.705355 -2.41196ZM0.705355 -2.41196" fill="#000"/>
  </g>
 </g>
 <path d="M39.0288 -98.1409L46.0106 -98.1409L46.0106 -105.954L39.0288 -105.954Z" fill="#fff"/>
 <g transform="matrix(1.000000,0.000000,0.000000,1.000000,42.519685,-102.047244)">
  <g>
   <path d="M-3.28767 3.90634M1.6259 -3.90038L-1.63786 -3.90038L-1.63786 -3.7091C-0.89664 -3.63737 -0.717312 -3.54173 -0.717312 -3.19503C-0.717312 -3.02766 -0.765133 -2.75269 -0.848819 -2.45381L-2.3193 2.83038C-2.5345 3.52378 -2.61818 3.59551 -3.28767 3.71506L-3.28767 3.90634L2.79751 3.90634L3.49091 1.76637L3.2518 1.69464C2.83337 2.55541 2.51058 2.93797 1.98456 3.20099C1.56612 3.40422 1.07596 3.47596 0.0358631 3.47596C-0.87273 3.47596 -1.17161 3.38031 -1.17161 3.06948C-1.17161 2.98579 -1.11183 2.69887 -1.05206 2.47172L0.418429 -2.82442C0.597756 -3.43413 0.90859 -3.66128 1.6259 -3.7091ZM1.6259 -3.7091" fill="#000"/>
  </g>
 </g>
 <g transform="matrix(0.000000,-1.000000,1.000000,0.000000,-17.007874,-31.889764)">
  <path d="M-2.98879 2.68691L2.98879 2.68691L2.98879 -2.68692L-2.98879 -2.68692Z" fill="#fff"/>
  <g transform="matrix(1.000000,0.000000,0.000000,1.000000,0.000000,-0.000000)">
   <g>
    <g>
     <path d="M-2.78555 2.59725M2.55841 1.28219C2.37908 1.46151 2.30735 1.52129 2.22366 1.61693C1.86501 1.98754 1.70959 2.10709 1.60199 2.10709C1.50635 2.10709 1.43462 2.03536 1.43462 1.95168C1.43462 1.71257 1.93674 -0.331761 2.49863 -2.38805C2.5345 -2.5076 2.54645 -2.53151 2.57036 -2.63911L2.48667 -2.67497L1.75741 -2.59129L1.72154 -2.55542L1.59004 -1.98157C1.4944 -2.42392 1.1477 -2.67497 0.633624 -2.67497C-0.944458 -2.67497 -2.78555 -0.487178 -2.78555 1.40174C-2.78555 2.2386 -2.33126 2.72876 -1.56613 2.72876C-0.729265 2.72876 -0.215193 2.33424 0.836862 0.8518C0.597758 1.7843 0.561893 1.93972 0.561893 2.22664C0.561893 2.57334 0.705355 2.71681 1.0401 2.71681C1.51831 2.71681 1.81719 2.48966 2.70187 1.40174ZM2.70187 1.40174M0.705355 -2.41196C1.11183 -2.38805 1.37484 -2.10113 1.37484 -1.6827C1.37484 -0.678461 0.777086 0.732249 -0.0478207 1.61693C-0.334745 1.93972 -0.74122 2.14296 -1.08792 2.14296C-1.50635 2.14296 -1.78132 1.79626 -1.78132 1.24632C-1.78132 0.600742 -1.32702 -0.63064 -0.812951 -1.37186C-0.334745 -2.06526 0.227148 -2.44783 0.705355 -2.41196ZM0.705355 -2.41196" fill="#000"/>
    </g>
   </g>
  </g>
 </g>
 <g transform="matrix(0.000000,1.000000,-1.000000,0.000000,102.047244,-42.519685)">
  <path d="M-3.49091 3.90634L3.49091 3.90634L3.49091 -3.90635L-3.49091 -3.90635Z" fill="#fff"/>
  <g transform="matrix(1.000000,0.000000,0.000000,1.000000,0.000000,-0.000000)">
   <g>
    <path d="M-3.28767 3.90634M1.6259 -3.90038L-1.63786 -3.90038L-1.63786 -3.7091C-0.89664 -3.63737 -0.717312 -3.54173 -0.717312 -3.19503C-0.717312 -3.02766 -0.765133 -2.75269 -0.848819 -2.45381L-2.3193 2.83038C-2.5345 3.52378 -2.61818 3.59551 -3.28767 3.71506L-3.28767 3.90634L2.79751 3.90634L3.49091 1.76637L3.2518 1.69464C2.83337 2.55541 2.51058 2.93797 1.98456 3.20099C1.56612 3.40422 1.07596 3.47596 0.0358631 3.47596C-0.87273 3.47596 -1.17161 3.38031 -1.17161 3.06948C-1.17161 2.98579 -1.11183 2.69887 -1.05206 2.47172L0.418429 -2.82442C0.597756 -3.43413 0.90859 -3.66128 1.6259 -3.7091ZM1.6259 -3.7091" fill="#000"/>
   </g>
  </g>
 </g>
 <g transform="matrix(1.000000,0.000000,0.000000,1.000000,31.889764,-31.889764)">
  <g>
   <path d="M-11.738 1.41071M-5.23434 0.490162C-5.23434 0.418431 -5.2463 0.382566 -5.28216 0.382566C-5.46149 0.382566 -5.44953 1.08792 -6.09511 1.08792C-6.27444 1.08792 -6.34617 0.932503 -6.34617 0.705355C-6.34617 0.394521 -6.22662 -0.0597755 -6.10707 -0.537982L-5.27021 -3.86152L-6.31031 -3.68219L-7.26672 -0.0836858C-7.29063 -0.02391 -7.99598 0.968369 -8.72525 0.968369C-9.40669 0.968369 -9.62189 0.3467 -9.62189 -0.119551C-9.62189 -0.263013 -9.59798 -0.39452 -9.57407 -0.502117L-8.72525 -3.86152L-9.60993 -3.7061L-10.913 1.41071C-11.1641 2.37908 -11.6423 3.67024 -11.738 3.88543L-10.6859 3.88543L-9.92077 0.896638L-9.90881 0.896638C-9.90881 0.908593 -9.86099 1.54222 -9.00022 1.54222C-8.04381 1.54222 -7.458 0.597759 -7.33845 0.454297C-7.35041 0.549938 -7.36236 0.633624 -7.36236 0.71731C-7.36236 1.50635 -6.6331 1.54222 -6.42986 1.54222L-6.39399 1.54222C-5.56909 1.54222 -5.23434 0.765131 -5.23434 0.490162ZM-5.23434 0.490162" fill="#000"/>
   <path d="M-4.62861 3.20397M-3.36137 -0.462278L-4.59673 -0.0239221L-4.59673 0.0956295L-4.53297 0.0876594C-4.43733 0.0717192 -4.33372 0.0637491 -4.26199 0.0637491C-4.07071 0.0637491 -3.99898 0.191271 -3.99898 0.541956L-3.99898 2.39102C-3.99898 2.96487 -4.07868 3.05254 -4.62861 3.08442L-4.62861 3.20397L-2.7397 3.20397L-2.7397 3.08442C-3.26573 3.04457 -3.32949 2.96487 -3.32949 2.39102L-3.32949 -0.438368ZM-3.32949 -0.438368M-3.73596 -2.23961C-3.95115 -2.23961 -4.13447 -2.0563 -4.13447 -1.83314C-4.13447 -1.60997 -3.95912 -1.42666 -3.73596 -1.42666C-3.50483 -1.42666 -3.32152 -1.602 -3.32152 -1.83314C-3.32152 -2.0563 -3.50483 -2.23961 -3.73596 -2.23961ZM-3.73596 -2.23961" fill="#000"/>
   <path d="M-1.37282 1.41071M0.288944 1.33898C0.288944 0.3467 -0.404456 0.191283 -0.679425 0.191283C-0.978304 0.191283 -1.37282 0.370611 -1.37282 0.884683C-1.37282 1.36289 -0.942438 1.48244 -0.631604 1.48244C-0.547918 1.48244 -0.488142 1.47049 -0.452276 1.45853C-0.404456 1.44658 -0.36859 1.43462 -0.34468 1.43462C-0.260994 1.43462 -0.177308 1.4944 -0.177308 1.60199C-0.177308 1.82914 -0.36859 2.36712 -1.15763 2.86924L-1.05003 3.09639C-0.69138 2.97684 0.288944 2.1878 0.288944 1.33898ZM0.288944 1.33898" fill="#000"/>
   <path d="M3.21394 1.41071M8.46226 -3.44309C8.46226 -3.51482 8.4264 -3.86152 8.03188 -3.86152C7.25479 -3.86152 7.24284 -3.39527 7.24284 -2.57036C7.24284 -2.1878 6.96787 -1.63786 6.31033 -0.860772L5.35392 0.286924C5.35392 0.274969 5.49738 -0.561893 5.49738 -1.13574C5.49738 -3.07248 4.86376 -3.71806 4.76812 -3.86152C4.18231 -3.58655 3.39327 -3.52677 3.26177 -3.52677L3.21394 -3.34745C3.5726 -3.34745 4.68443 -3.32354 4.68443 -0.609713C4.68443 0.167373 4.46924 1.41071 4.46924 1.54222L4.82789 1.54222C5.03113 1.29116 8.46226 -2.70187 8.46226 -3.44309ZM8.46226 -3.44309" fill="#000"/>
   <path d="M8.56586 3.20397M9.83311 -0.462278L8.59774 -0.0239221L8.59774 0.0956295L8.66151 0.0876594C8.75715 0.0717192 8.86076 0.0637491 8.93249 0.0637491C9.12377 0.0637491 9.1955 0.191271 9.1955 0.541956L9.1955 2.39102C9.1955 2.96487 9.1158 3.05254 8.56586 3.08442L8.56586 3.20397L10.4548 3.20397L10.4548 3.08442C9.92875 3.04457 9.86499 2.96487 9.86499 2.39102L9.86499 -0.438368ZM9.86499 -0.438368M9.45852 -2.23961C9.24332 -2.23961 9.06001 -2.0563 9.06001 -1.83314C9.06001 -1.60997 9.23535 -1.42666 9.45852 -1.42666C9.68965 -1.42666 9.87296 -1.602 9.87296 -1.83314C9.87296 -2.0563 9.68965 -2.23961 9.45852 -2.23961ZM9.45852 -2.23961" fill="#000"/>
  </g>
 </g>
 <g transform="matrix(1.000000,0.000000,0.000000,1.000000,42.519685,-74.409449)">
  <g>
   <path d="M-15.723 1.41071M-9.2194 0.490162C-9.2194 0.418431 -9.23135 0.382566 -9.26722 0.382566C-9.44655 0.382566 -9.43459 1.08792 -10.0802 1.08792C-10.2595 1.08792 -10.3312 0.932503 -10.3312 0.705355C-10.3312 0.394521 -10.2117 -0.0597755 -10.0921 -0.537982L-9.25526 -3.86152L-10.2954 -3.68219L-11.2518 -0.0836858C-11.2757 -0.02391 -11.981 0.968369 -12.7103 0.968369C-13.3918 0.968369 -13.6069 0.3467 -13.6069 -0.119551C-13.6069 -0.263013 -13.583 -0.39452 -13.5591 -0.502117L-12.7103 -3.86152L-13.595 -3.7061L-14.8981 1.41071C-15.1492 2.37908 -15.6274 3.67024 -15.723 3.88543L-14.671 3.88543L-13.9058 0.896638L-13.8939 0.896638C-13.8939 0.908593 -13.846 1.54222 -12.9853 1.54222C-12.0289 1.54222 -11.4431 0.597759 -11.3235 0.454297C-11.3355 0.549938 -11.3474 0.633624 -11.3474 0.71731C-11.3474 1.50635 -10.6182 1.54222 -10.4149 1.54222L-10.379 1.54222C-9.55414 1.54222 -9.2194 0.765131 -9.2194 0.490162ZM-9.2194 0.490162" fill="#000"/>
   <path d="M-8.61367 3.20397M-8.58976 0.0318687C-8.48615 0.00795832 -8.42239 -1.17966e-05 -8.33472 -1.17966e-05C-8.12749 -1.17966e-05 -8.05576 0.12751 -8.05576 0.510075L-8.05576 2.52651C-8.05576 2.9569 -8.16734 3.07645 -8.61367 3.08442L-8.61367 3.20397L-6.84431 3.20397L-6.84431 3.08442C-7.26672 3.06848 -7.38627 2.98081 -7.38627 2.66998L-7.38627 0.422404C-7.38627 0.406464 -7.32251 0.326763 -7.26672 0.270972C-7.06747 0.0876594 -6.72475 -0.0478325 -6.4458 -0.0478325C-6.09511 -0.0478325 -5.91977 0.231121 -5.91977 0.789029L-5.91977 2.51854C-5.91977 2.96487 -6.00744 3.05254 -6.46174 3.08442L-6.46174 3.20397L-4.67643 3.20397L-4.67643 3.08442C-5.13073 3.07645 -5.25028 2.94096 -5.25028 2.44681L-5.25028 0.438344C-5.01118 0.0956295 -4.74817 -0.0478325 -4.38154 -0.0478325C-3.92724 -0.0478325 -3.78378 0.167361 -3.78378 0.82888L-3.78378 2.51057C-3.78378 2.96487 -3.84754 3.02863 -4.30981 3.08442L-4.30981 3.20397L-2.56436 3.20397L-2.56436 3.08442L-2.77158 3.06848C-3.01068 3.05254 -3.11429 2.90908 -3.11429 2.59824L-3.11429 0.956402C-3.11429 0.0159284 -3.42513 -0.462278 -4.03883 -0.462278C-4.50109 -0.462278 -4.90757 -0.255055 -5.33795 0.207211C-5.48142 -0.247085 -5.7524 -0.462278 -6.18279 -0.462278C-6.53347 -0.462278 -6.75663 -0.350697 -7.41815 0.15142L-7.41815 -0.446338L-7.47394 -0.462278C-7.88042 -0.310846 -8.1514 -0.223175 -8.58976 -0.103623ZM-8.58976 -0.103623" fill="#000"/>
   <path d="M-1.37282 1.41071M0.288944 1.33898C0.288944 0.3467 -0.404456 0.191283 -0.679425 0.191283C-0.978304 0.191283 -1.37282 0.370611 -1.37282 0.884683C-1.37282 1.36289 -0.942438 1.48244 -0.631604 1.48244C-0.547918 1.48244 -0.488142 1.47049 -0.452276 1.45853C-0.404456 1.44658 -0.36859 1.43462 -0.34468 1.43462C-0.260994 1.43462 -0.177308 1.4944 -0.177308 1.60199C-0.177308 1.82914 -0.36859 2.36712 -1.15763 2.86924L-1.05003 3.09639C-0.69138 2.97684 0.288944 2.1878 0.288944 1.33898ZM0.288944 1.33898" fill="#000"/>
   <path d="M3.21394 1.41071M8.46226 -3.44309C8.46226 -3.51482 8.4264 -3.86152 8.03188 -3.86152C7.25479 -3.86152 7.24284 -3.39527 7.24284 -2.57036C7.24284 -2.1878 6.96787 -1.63786 6.31033 -0.860772L5.35392 0.286924C5.35392 0.274969 5.49738 -0.561893 5.49738 -1.13574C5.49738 -3.07248 4.86376 -3.71806 4.76812 -3.86152C4.18231 -3.58655 3.39327 -3.52677 3.26177 -3.52677L3.21394 -3.34745C3.5726 -3.34745 4.68443 -3.32354 4.68443 -0.609713C4.68443 0.167373 4.46924 1.41071 4.46924 1.54222L4.82789 1.54222C5.03113 1.29116 8.46226 -2.70187 8.46226 -3.44309ZM8.46226 -3.44309" fill="#000"/>
   <path d="M8.56586 3.20397M8.58977 0.0318687C8.69339 0.00795832 8.75715 -1.17966e-05 8.84482 -1.17966e-05C9.05204 -1.17966e-05 9.12377 0.12751 9.12377 0.510075L9.12377 2.52651C9.12377 2.9569 9.01219 3.07645 8.56586 3.08442L8.56586 3.20397L10.3352 3.20397L10.3352 3.08442C9.91281 3.06848 9.79326 2.98081 9.79326 2.66998L9.79326 0.422404C9.79326 0.406464 9.85702 0.326763 9.91281 0.270972C10.1121 0.0876594 10.4548 -0.0478325 10.7337 -0.0478325C11.0844 -0.0478325 11.2598 0.231121 11.2598 0.789029L11.2598 2.51854C11.2598 2.96487 11.1721 3.05254 10.7178 3.08442L10.7178 3.20397L12.5031 3.20397L12.5031 3.08442C12.0488 3.07645 11.9293 2.94096 11.9293 2.44681L11.9293 0.438344C12.1684 0.0956295 12.4314 -0.0478325 12.798 -0.0478325C13.2523 -0.0478325 13.3958 0.167361 13.3958 0.82888L13.3958 2.51057C13.3958 2.96487 13.332 3.02863 12.8697 3.08442L12.8697 3.20397L14.6152 3.20397L14.6152 3.08442L14.408 3.06848C14.1689 3.05254 14.0652 2.90908 14.0652 2.59824L14.0652 0.956402C14.0652 0.0159284 13.7544 -0.462278 13.1407 -0.462278C12.6784 -0.462278 12.272 -0.255055 11.8416 0.207211C11.6981 -0.247085 11.4271 -0.462278 10.9967 -0.462278C10.6461 -0.462278 10.4229 -0.350697 9.76138 0.15142L9.76138 -0.446338L9.70559 -0.462278C9.29911 -0.310846 9.02813 -0.223175 8.58977 -0.103623ZM8.58977 -0.103623" fill="#000"/>
  </g>
 </g>
</svg>
